<svg xmlns="http://www.w3.org/2000/svg" viewBox="0 0 32 32" width="32" height="32">
  <defs>
    <linearGradient id="stoneGradient" x1="0%" y1="0%" x2="100%" y2="100%">
      <stop offset="0%" style="stop-color:#78716C;stop-opacity:1" />
      <stop offset="100%" style="stop-color:#92400E;stop-opacity:1" />
    </linearGradient>
    <linearGradient id="mountainGradient" x1="0%" y1="0%" x2="100%" y2="100%">
      <stop offset="0%" style="stop-color:#3B82F6;stop-opacity:1" />
      <stop offset="100%" style="stop-color:#1E40AF;stop-opacity:1" />
    </linearGradient>
    <linearGradient id="pathGradient" x1="0%" y1="0%" x2="100%" y2="0%">
      <stop offset="0%" style="stop-color:#F59E0B;stop-opacity:0.8" />
      <stop offset="100%" style="stop-color:#10B981;stop-opacity:0.8" />
    </linearGradient>
  </defs>
  
  <!-- Mountain silhouette background - scaled for favicon size -->
  <path d="M2 26 L5 11 L8 15 L11 8 L14 13 L18 18 L21 11 L24 19 L27 26 Z" fill="url(#mountainGradient)" opacity="0.3"/>
  
  <!-- Main stone/cairn - scaled from main logo -->
  <ellipse cx="8" cy="25" rx="2.5" ry="1.3" fill="url(#stoneGradient)"/>
  <ellipse cx="8" cy="22" rx="2" ry="1" fill="url(#stoneGradient)" opacity="0.9"/>
  <ellipse cx="8" cy="20" rx="1.3" ry="0.7" fill="url(#stoneGradient)" opacity="0.8"/>
  
  <!-- Trail path - scaled from main logo -->
  <path d="M2 28 Q6 26 9 27 Q14 28 18 26 Q22 25 26 27" stroke="url(#pathGradient)" stroke-width="1" fill="none" stroke-linecap="round"/>
  
  <!-- GPS location pin - scaled from main logo -->
  <circle cx="19" cy="8" r="1.3" fill="#F59E0B"/>
  <circle cx="19" cy="8" r="0.7" fill="white"/>
  
  <!-- Camera icon - scaled from main logo -->
  <rect x="25" y="6" width="2.5" height="2" rx="0.3" fill="#10B981" opacity="0.7"/>
  <circle cx="26.2" cy="7" r="0.7" fill="none" stroke="#10B981" stroke-width="0.3"/>
  <circle cx="26.2" cy="7" r="0.4" fill="#10B981"/>
</svg>