<svg xmlns="http://www.w3.org/2000/svg" viewBox="0 0 200 60" width="200" height="60">
  <defs>
    <linearGradient id="stoneGradient" x1="0%" y1="0%" x2="100%" y2="100%">
      <stop offset="0%" style="stop-color:#78716C;stop-opacity:1" />
      <stop offset="100%" style="stop-color:#92400E;stop-opacity:1" />
    </linearGradient>
    <linearGradient id="mountainGradient" x1="0%" y1="0%" x2="100%" y2="100%">
      <stop offset="0%" style="stop-color:#3B82F6;stop-opacity:1" />
      <stop offset="100%" style="stop-color:#1E40AF;stop-opacity:1" />
    </linearGradient>
    <linearGradient id="pathGradient" x1="0%" y1="0%" x2="100%" y2="0%">
      <stop offset="0%" style="stop-color:#F59E0B;stop-opacity:0.8" />
      <stop offset="100%" style="stop-color:#10B981;stop-opacity:0.8" />
    </linearGradient>
  </defs>
  
  <!-- Mountain silhouette background - made larger -->
  <path d="M10 50 L30 20 L50 35 L70 15 L90 30 L110 40 L130 25 L150 45 L170 50 Z" fill="url(#mountainGradient)" opacity="0.3"/>
  
  <!-- Main stone/cairn - made larger and more centered -->
  <ellipse cx="50" cy="48" rx="16" ry="8" fill="url(#stoneGradient)"/>
  <ellipse cx="50" cy="37" rx="12" ry="6" fill="url(#stoneGradient)" opacity="0.9"/>
  <ellipse cx="50" cy="28" rx="8" ry="4" fill="url(#stoneGradient)" opacity="0.8"/>
  
  <!-- Trail path - made larger and longer -->
  <path d="M15 52 Q35 48 60 50 Q85 52 110 48 Q135 46 160 49" stroke="url(#pathGradient)" stroke-width="5" fill="none" stroke-linecap="round"/>
  
  <!-- GPS location pin - made larger -->
  <circle cx="120" cy="20" r="8" fill="#F59E0B"/>
  <circle cx="120" cy="20" r="4" fill="white"/>
  
  <!-- Camera icon - made larger -->
  <rect x="155" y="15" width="16" height="12" rx="2" fill="#10B981" opacity="0.7"/>
  <circle cx="163" cy="21" r="4" fill="none" stroke="#10B981" stroke-width="1.5"/>
  <circle cx="163" cy="21" r="2" fill="#10B981"/>
</svg>